<?xml version="1.0" encoding="UTF-8" standalone="no"?>
<svg xmlns:dc="http://purl.org/dc/elements/1.1/" xmlns:cc="http://creativecommons.org/ns#" xmlns:rdf="http://www.w3.org/1999/02/22-rdf-syntax-ns#" xmlns:svg="http://www.w3.org/2000/svg" xmlns="http://www.w3.org/2000/svg" xmlns:sodipodi="http://sodipodi.sourceforge.net/DTD/sodipodi-0.dtd" xmlns:inkscape="http://www.inkscape.org/namespaces/inkscape" inkscape:version="1.0 (4035a4f, 2020-05-01)" sodipodi:docname="glad.png.svg" viewBox="0 0 231.03999 201.28" height="201.28" width="231.03999" id="svg225" version="1.1">
   <metadata id="metadata231">
      <rdf:RDF>
         <cc:Work rdf:about="">
            <dc:format>image/svg+xml</dc:format>
            <dc:type rdf:resource="http://purl.org/dc/dcmitype/StillImage" />
            <dc:title></dc:title>
         </cc:Work>
      </rdf:RDF>
   </metadata>
   <defs id="defs229" />
   <sodipodi:namedview inkscape:current-layer="g233" inkscape:window-maximized="0" inkscape:window-y="26" inkscape:window-x="0" inkscape:cy="94.908571" inkscape:cx="115.52" inkscape:zoom="2.9411765" showgrid="false" id="namedview227" inkscape:window-height="774" inkscape:window-width="1280" inkscape:pageshadow="2" inkscape:pageopacity="0" guidetolerance="10" gridtolerance="10" objecttolerance="10" borderopacity="1" bordercolor="#666666" pagecolor="#ffffff" />
   <g id="g233" inkscape:label="Image" inkscape:groupmode="layer">
      <path id="path239" d="M 115.65017,193.98 C 115.514,193.76 91.02227,151.316 61.224113,99.66 L 7.0456461,5.7400001 l 40.3835899,-0.08124 40.383592,-0.08124 1.392282,0.673994 c 0.76576,0.370696 1.73571,1.127253 2.15546,1.681236 0.41975,0.553983 4.39576,7.3432419 8.83559,15.0872419 4.43984,7.744 14.80002,25.744 23.02263,40 33.03961,57.282608 33.69805,58.451708 33.70316,59.841388 0.004,1.10582 -1.55309,3.9777 -11.36461,20.96 -6.25313,10.82323 -14.93779,25.87061 -19.29926,33.43861 -7.87457,13.66395 -9.93675,17.12 -10.21522,17.12 -0.0798,0 -0.25651,-0.18 -0.39269,-0.4 z m 1.417,-33.92 c 0.70529,-1.1 4.59146,-7.76 8.63593,-14.8 4.04448,-7.04 8.54491,-14.816 10.00097,-17.28 3.85203,-6.51857 3.88108,-6.02317 -0.82563,-14.08 C 129.01848,103.86908 109.86202,70.660182 95.56053,45.74 87.654627,31.964044 82.094131,22.610589 81.435552,21.98 L 80.349395,20.94 H 57.270462 c -18.406966,0 -23.047673,0.08147 -22.924499,0.402462 0.08494,0.221353 17.468553,30.425352 38.630245,67.119998 21.161692,36.69465 39.359602,68.2639 40.439792,70.1539 1.0802,1.89 2.05508,3.438 2.16641,3.44 0.11133,0.002 0.77947,-0.89636 1.48476,-1.99636 z M 133.51454,59.032291 C 116.76454,30.000393 103.06,6.1689411 103.06,6.0735101 c 0,-0.09543 27.36754,-0.17351 60.81675,-0.17351 h 60.81676 l -1.51715,2.8 c -4.57574,8.4448609 -6.07113,10.7899759 -7.34255,11.5147359 l -1.25382,0.714736 -41.92,0.03716 c -23.056,0.02044 -42.22177,0.130807 -42.59062,0.245264 -0.61175,0.189835 0.80674,2.77122 16.16,29.408064 9.25684,16.059977 16.90262,29.19716 16.99062,29.19373 0.27509,-0.0107 16.98569,-29.194671 16.81466,-29.365698 -0.0892,-0.08917 -3.8793,-0.176938 -8.42254,-0.195056 -7.17041,-0.02858 -8.369,-0.10409 -9.08328,-0.572144 -0.62115,-0.407037 -5.76086,-8.866458 -6.6155,-10.888432 -0.0587,-0.1388 11.20933,-0.252362 25.04,-0.252362 13.83066,0 25.14666,0.06405 25.14666,0.142346 0,0.129056 -41.8732,72.871606 -42.05388,73.056436 -0.0424,0.0433 -13.78156,-23.67459 -30.53157,-52.706491 z" style="fill:#3c4043;stroke-width:0.32" />
   </g>
</svg>